<svg width="64" height="64" viewBox="0 0 64 64" fill="none" xmlns="http://www.w3.org/2000/svg">
<g clip-path="url(#clip0_206_3185)">
<path d="M32 64C49.6731 64 64 49.6731 64 32C64 14.3269 49.6731 0 32 0C14.3269 0 0 14.3269 0 32C0 49.6731 14.3269 64 32 64Z" fill="#505876"/>
<path d="M38.5556 37.3333H25.4444C24.6467 37.3333 24 37.98 24 38.7778V51.8889C24 52.6866 24.6467 53.3333 25.4444 53.3333H38.5556C39.3533 53.3333 40 52.6866 40 51.8889V38.7778C40 37.98 39.3533 37.3333 38.5556 37.3333Z" fill="#F0528E"/>
<path d="M30.2134 40.8889H28.7823L25.7778 48.8889H27.1645L27.8934 46.8444H31.1201L31.8312 48.8888H33.2178L30.2134 40.8889ZM28.3023 45.6889L29.1557 43.3066L29.4668 42.3733H29.529L29.8401 43.3066L30.6934 45.6889H28.3023Z" fill="white"/>
<path d="M36.7734 40.8889H34.9956V48.8889H36.7734V40.8889Z" fill="white"/>
<path d="M19.6778 13H43.6778C44.4569 13.0817 45.1729 13.466 45.6716 14.0702C46.1703 14.6744 46.4119 15.4502 46.3445 16.2308V30.7693C46.4119 31.5498 46.1703 32.3256 45.6716 32.9298C45.1729 33.534 44.4569 33.9183 43.6778 34H19.6778C18.8986 33.9183 18.1827 33.534 17.684 32.9298C17.1853 32.3256 16.9437 31.5498 17.0111 30.7692V16.2308C16.9436 15.4503 17.1853 14.6745 17.684 14.0702C18.1827 13.466 18.8986 13.0817 19.6778 13Z" fill="white"/>
<path d="M39.6777 17.5555H23.6777V20.2222H39.6777V17.5555Z" fill="#2499E7"/>
<path d="M39.6777 22.2223H23.6777V24.889H39.6777V22.2223Z" fill="#2499E7"/>
<path d="M35.6777 27.3334H23.6777V30H35.6777V27.3334Z" fill="#2499E7"/>
<path d="M31.6777 37.333L40.3137 32H33.0107L31.6777 37.333Z" fill="white"/>
<path d="M49.0995 16.4485L49.7011 17.0487C49.8434 17.1907 49.9562 17.3593 50.0333 17.545C50.1103 17.7306 50.1499 17.9296 50.1499 18.1306C50.1499 18.3316 50.1103 18.5306 50.0333 18.7163C49.9562 18.9019 49.8434 19.0706 49.7011 19.2125L38.7642 30.1495H36V27.3855L46.937 16.4485C47.0789 16.3064 47.2474 16.1936 47.4329 16.1166C47.6185 16.0396 47.8174 16 48.0182 16C48.2191 16 48.418 16.0396 48.6035 16.1166C48.7891 16.1936 48.9576 16.3064 49.0995 16.4485L49.0995 16.4485Z" fill="#F0437E"/>
</g>
<defs>
<clipPath id="clip0_206_3185">
<rect width="64" height="64" fill="white"/>
</clipPath>
</defs>
</svg>
