<svg width="86" height="24" viewBox="0 0 86 24" fill="none" xmlns="http://www.w3.org/2000/svg">
<path d="M9.74312 3.97312V10.74H3.51165V3.97312H0.555176V20.1267H3.51245V13.5793H9.74232V20.1267H12.7004V3.97312H9.74312ZM22.1661 14.9056C22.1661 15.5531 21.9082 16.174 21.4493 16.6318C20.9904 17.0897 20.368 17.3469 19.719 17.3469C19.07 17.3469 18.4476 17.0897 17.9887 16.6318C17.5298 16.174 17.272 15.5531 17.272 14.9056V7.98616H14.4668V14.9056C14.4668 16.2939 15.0196 17.6254 16.0036 18.6071C16.9876 19.5888 18.3222 20.1403 19.7138 20.1403C21.1054 20.1403 22.44 19.5888 23.424 18.6071C24.4081 17.6254 24.9609 16.2939 24.9609 14.9056V7.98616H22.1661V14.9056ZM42.9518 8.69918C42.9518 7.28033 43.8922 6.8308 44.9222 6.8308C45.753 6.8308 46.8495 7.46158 47.5674 8.2265L49.4042 6.06587C48.487 4.82827 46.627 3.97312 45.1039 3.97312C42.0602 3.97312 39.8593 5.75128 39.8593 8.69918C39.8593 14.1686 46.5597 12.4328 46.5597 15.494C46.5597 16.4378 45.641 17.2714 44.5893 17.2714C42.9302 17.2714 42.3924 16.4626 41.6304 15.6066L39.5911 17.7217C40.8957 19.3187 42.5044 20.1299 44.4308 20.1299C47.3225 20.1299 49.6483 18.3302 49.6483 15.5164C49.6483 9.44494 42.947 11.3317 42.947 8.69918H42.9518ZM84.4048 17.5461C82.7473 17.5461 82.2759 16.8307 82.2759 15.7352V10.8846H84.853V8.42691H82.2759V5.18438L79.4315 6.45792V16.338C79.4315 18.8651 81.1794 20.1387 83.5757 20.1387C83.9518 20.1451 84.328 20.1147 84.6977 20.0492L85.3916 17.5006C85.0787 17.5221 84.7193 17.5437 84.4048 17.5437V17.5461ZM32.8443 8.06681C31.4549 8.06681 30.4848 8.46923 29.5468 9.38665V4.06973H26.7376V13.9251C26.7376 17.6139 29.4108 20.1419 32.4153 20.1419C35.7479 20.1419 38.6796 17.5692 38.6796 14.1055C38.6796 10.6849 35.9816 8.0692 32.8443 8.0692V8.06681ZM32.8266 17.3209C32.408 17.3209 31.9934 17.2386 31.6066 17.0788C31.2198 16.919 30.8683 16.6847 30.5723 16.3893C30.2762 16.094 30.0414 15.7433 29.8812 15.3574C29.7209 14.9716 29.6385 14.558 29.6385 14.1403C29.6385 13.7226 29.7209 13.309 29.8812 12.9231C30.0414 12.5372 30.2762 12.1866 30.5723 11.8912C30.8683 11.5959 31.2198 11.3616 31.6066 11.2017C31.9934 11.0419 32.408 10.9596 32.8266 10.9596C33.6722 10.9596 34.4831 11.2947 35.081 11.8912C35.6789 12.4877 36.0148 13.2967 36.0148 14.1403C36.0148 14.9838 35.6789 15.7928 35.081 16.3893C34.4831 16.9858 33.6722 17.3209 32.8266 17.3209ZM63.3534 13.9586C63.3534 10.4885 60.4281 7.92228 57.0891 7.92228C54.0854 7.92228 51.4114 10.4494 51.4114 14.1391V24H54.2206V18.6759C55.157 19.5917 56.1287 19.9957 57.5165 19.9957C60.6538 19.9957 63.3526 17.38 63.3526 13.9586H63.3534ZM60.693 13.9235C60.693 14.767 60.3571 15.5761 59.7592 16.1725C59.1613 16.769 58.3504 17.1041 57.5048 17.1041C56.6593 17.1041 55.8484 16.769 55.2505 16.1725C54.6526 15.5761 54.3167 14.767 54.3167 13.9235C54.3167 13.0799 54.6526 12.2709 55.2505 11.6744C55.8484 11.0779 56.6593 10.7428 57.5048 10.7428C58.3504 10.7428 59.1613 11.0779 59.7592 11.6744C60.3571 12.2709 60.693 13.0799 60.693 13.9235Z" fill="#33475B"/>
<path d="M72.431 7.78655V4.97039C72.804 4.79646 73.1198 4.52041 73.3417 4.17438C73.5636 3.82834 73.6824 3.42655 73.6843 3.01577V2.9511C73.6843 1.75341 72.7111 0.782488 71.5106 0.782488H71.4457C70.8692 0.782488 70.3163 1.01097 69.9087 1.41766C69.501 1.82435 69.272 2.37594 69.272 2.9511V3.01577C69.2739 3.42655 69.3927 3.82834 69.6146 4.17438C69.8365 4.52041 70.1523 4.79646 70.5254 4.97039V7.78655C69.4532 7.95032 68.4435 8.39379 67.5985 9.07206L59.8568 3.05649C59.912 2.85768 59.9408 2.65327 59.944 2.44807C59.945 1.96477 59.8022 1.49204 59.5338 1.08969C59.2654 0.687332 58.8835 0.373424 58.4362 0.18767C57.989 0.00191652 57.4966 -0.0473385 57.0213 0.0461355C56.546 0.13961 56.1092 0.371613 55.766 0.712801C55.4229 1.05399 55.1889 1.48903 55.0937 1.9629C54.9985 2.43677 55.0462 2.92817 55.2309 3.37496C55.4157 3.82174 55.7291 4.20383 56.1315 4.4729C56.5339 4.74197 57.0073 4.88592 57.4917 4.88655C57.9156 4.88456 58.3315 4.77168 58.6979 4.55919L66.3211 10.4773C65.6363 11.5095 65.279 12.7235 65.2959 13.9612C65.3127 15.1988 65.7029 16.4027 66.4156 17.4159L64.097 19.7299C63.9096 19.6701 63.7143 19.6383 63.5175 19.6356C63.1199 19.636 62.7312 19.7539 62.4007 19.9745C62.0702 20.1951 61.8127 20.5085 61.6607 20.875C61.5086 21.2416 61.4689 21.6449 61.5466 22.034C61.6243 22.4231 61.8158 22.7805 62.097 23.061C62.3781 23.3415 62.7364 23.5326 63.1264 23.61C63.5164 23.6875 63.9206 23.6479 64.2881 23.4962C64.6555 23.3446 64.9697 23.0876 65.1908 22.7579C65.4119 22.4282 65.5301 22.0405 65.5304 21.6438C65.5278 21.4475 65.496 21.2526 65.436 21.0657L67.7297 18.7765C68.4777 19.351 69.3476 19.7471 70.2727 19.9344C71.1978 20.1216 72.1537 20.0952 73.067 19.857C73.9802 19.6189 74.8268 19.1753 75.5417 18.5604C76.2566 17.9454 76.821 17.1753 77.1915 16.3091C77.562 15.443 77.7289 14.5037 77.6793 13.5632C77.6298 12.6228 77.3651 11.7061 76.9056 10.8835C76.4461 10.0608 75.804 9.35405 75.0283 8.81724C74.2527 8.28044 73.3643 7.92787 72.431 7.78655ZM71.4802 17.0486C71.0562 17.0603 70.6343 16.987 70.2392 16.8332C69.8442 16.6794 69.484 16.4482 69.18 16.1531C68.8761 15.8581 68.6345 15.5053 68.4695 15.1156C68.3045 14.7258 68.2195 14.307 68.2195 13.884C68.2195 13.4609 68.3045 13.0421 68.4695 12.6523C68.6345 12.2626 68.8761 11.9098 69.18 11.6148C69.484 11.3197 69.8442 11.0885 70.2392 10.9347C70.6343 10.7809 71.0562 10.7076 71.4802 10.7193C72.3018 10.748 73.0802 11.0937 73.6514 11.6835C74.2226 12.2734 74.5421 13.0614 74.5425 13.8816C74.5429 14.7018 74.2242 15.4901 73.6536 16.0806C73.083 16.671 72.305 17.0175 71.4834 17.047" fill="#FF7A59"/>
</svg>
