<svg width="64" height="64" viewBox="0 0 64 64" fill="none" xmlns="http://www.w3.org/2000/svg">
<circle cx="32" cy="32" r="32" fill="#F8F8F9"/>
<path d="M34 19V31C30 32 28 34.5738 27.1 38H16V19H34Z" fill="#ADD4EA"/>
<path d="M37 20V30.5C35.95 30.5 34.9 30.65 34 30.95V20H16V38H27.1C26.8 38.9 26.65 39.95 26.65 41H16C14.35 41 13 39.65 13 38V20C13 18.35 14.35 17 16 17H34C35.65 17 37 18.35 37 20Z" fill="#505876"/>
<path d="M27 32H23V35H27V32Z" fill="#505876"/>
<path d="M28.625 30H32V27H23V30H28.625Z" fill="#505876"/>
<path d="M32 22H23V25H32V22Z" fill="#505876"/>
<path d="M42.5488 41.4008V39.9008L44.1988 38.7008C44.3488 38.5508 44.4988 38.4008 44.3488 38.2508L42.8488 35.7008C42.8488 35.5508 42.5488 35.5508 42.3988 35.5508L40.5988 36.3008C40.1488 36.0008 39.6988 35.7008 39.2488 35.5508L38.9488 33.6008C38.9488 33.4508 38.7988 33.3008 38.6488 33.3008H35.6488C35.3488 33.3008 35.1988 33.4508 35.1988 33.6008L34.8988 35.5508C34.4488 35.8508 34.1488 36.0008 33.6988 36.3008L31.8989 35.5508C31.7489 35.5508 31.5989 35.5508 31.4489 35.7008L29.9489 38.2508C29.9489 38.4008 29.9489 38.5508 30.0989 38.7008L31.7489 39.9008V41.4008L30.0989 42.6008C29.9489 42.7508 29.7989 42.9008 29.9489 43.0508L31.4489 45.6008C31.5989 45.7508 31.7489 45.7508 31.8989 45.7508L33.6988 45.0008C33.9988 45.3008 34.4488 45.6008 34.8988 45.7508L35.1988 47.7008C35.3488 47.8508 35.4988 48.0008 35.6488 48.0008H38.6488C38.7988 48.0008 38.9488 47.8508 38.9488 47.7008L39.2488 45.7508C39.6988 45.4508 39.9988 45.3008 40.4488 45.0008L42.2488 45.6008C42.3988 45.6008 42.5488 45.6008 42.6988 45.4508L44.1988 42.9008C44.3488 42.7508 44.3488 42.6008 44.1988 42.6008L42.5488 41.4008ZM36.9988 42.7508C35.7988 42.7508 34.7488 41.7008 34.7488 40.5008C34.7488 39.3008 35.7988 38.2508 36.9988 38.2508C38.1988 38.2508 39.2488 39.3008 39.2488 40.5008C39.2488 41.7008 38.1988 42.7508 36.9988 42.7508Z" fill="#E45C96"/>
<path d="M37 42.75C38.2426 42.75 39.25 41.7426 39.25 40.5C39.25 39.2574 38.2426 38.25 37 38.25C35.7574 38.25 34.75 39.2574 34.75 40.5C34.75 41.7426 35.7574 42.75 37 42.75Z" fill="#FFD9E9"/>
<path d="M46.1 32.1L44 33L46.1 33.9L47 36L47.9 33.9L50 33L47.9 32.1L47 30L46.1 32.1Z" fill="#E45C96"/>
<path d="M42.5 30L43.85 26.85L47 25.5L43.85 24.15L42.5 21L41.15 24.15L38 25.5L41.15 26.85L42.5 30Z" fill="#E45C96"/>
<circle cx="19.5" cy="23.5" r="1.5" fill="#505876"/>
<circle cx="19.5" cy="28.5" r="1.5" fill="#505876"/>
<circle cx="19.5" cy="33.5" r="1.5" fill="#505876"/>
</svg>
