<svg width="64" height="64" viewBox="0 0 64 64" fill="none" xmlns="http://www.w3.org/2000/svg">
<circle cx="32" cy="32" r="32" fill="#F8F8F9"/>
<path d="M37 21H17V41H37V21Z" fill="#ADD4EA"/>
<path d="M32 30H20V33H32V30Z" fill="#505876"/>
<path d="M34 25H20V28H34V25Z" fill="#505876"/>
<path d="M36.3333 19H17.6667C16.2 19 15 20.2 15 21.6667V40.3333C15 41.8 16.2 43 17.6667 43H20V40H18V22H36V40H34V43H36.3333C37.8 43 39 41.8 39 40.3333V21.6667C39 20.2 37.8 19 36.3333 19Z" fill="#505876"/>
<path d="M29.268 35.5352L23.8013 41.0018L26.468 43.6685L31.9346 38.2018V35.5352H29.268ZM22.068 42.6018C21.5346 43.1352 21.5346 44.0685 22.068 44.7352L22.7346 45.4018C23.268 45.9352 24.2013 45.9352 24.868 45.4018L25.668 44.6018L23.0013 41.9352L22.068 42.6018Z" fill="#E45C96"/>
<path d="M43.6128 33.1059L45.0195 33.7088L43.6128 34.3117L43.0099 35.7184L42.407 34.3117L41.0003 33.7088L42.407 33.1059L43.0099 31.6992L43.6128 33.1059Z" fill="#E45C96"/>
<path d="M45.6897 31.6987L44.6849 29.3541L42.3404 28.3493L44.6849 27.3445L45.6897 25L46.6945 27.3445L49.0391 28.3493L46.6945 29.3541L45.6897 31.6987Z" fill="#E45C96"/>
</svg>
