<svg width="85" height="24" viewBox="0 0 85 24" fill="none" xmlns="http://www.w3.org/2000/svg">
<path d="M18.6087 4.56358C18.595 4.43986 18.4852 4.38488 18.4028 4.38488C18.3205 4.38488 16.5225 4.24742 16.5225 4.24742C16.5225 4.24742 15.2736 2.99656 15.1226 2.87285C14.9854 2.7354 14.7246 2.77663 14.6148 2.80412C14.6011 2.80412 14.3403 2.8866 13.9149 3.02406C13.4894 1.80069 12.762 0.687285 11.4582 0.687285H11.3347C10.9778 0.219931 10.5112 0 10.1269 0C7.10748 0 5.65267 3.78007 5.19976 5.70447C4.01944 6.0756 3.18224 6.32303 3.08617 6.36426C2.42739 6.57045 2.41366 6.58419 2.33132 7.20275C2.26269 7.67011 0.547119 20.9622 0.547119 20.9622L13.9011 23.4639L21.1477 21.8969C21.1615 21.8694 18.6224 4.68729 18.6087 4.56358ZM13.1737 3.2165C12.8444 3.31272 12.4463 3.43643 12.0483 3.57388V3.32646C12.0483 2.58419 11.9523 1.97938 11.7738 1.49828C12.4601 1.58076 12.8855 2.33677 13.1737 3.2165ZM10.9366 1.64949C11.1151 2.11684 11.2386 2.77663 11.2386 3.68385V3.82131C10.4974 4.05498 9.71515 4.28866 8.9054 4.54983C9.35831 2.81787 10.223 1.96564 10.9366 1.64949ZM10.0583 0.797251C10.1955 0.797251 10.3328 0.852234 10.4426 0.934708C9.46811 1.38832 8.43876 2.52921 8.0133 4.83849C7.36824 5.04468 6.75064 5.22337 6.16048 5.41581C6.65456 3.65636 7.88978 0.797251 10.0583 0.797251Z" fill="#95BF47"/>
<path d="M18.4026 4.35734C18.3203 4.35734 16.5224 4.21988 16.5224 4.21988C16.5224 4.21988 15.2734 2.96902 15.1225 2.84531C15.0676 2.79033 14.9989 2.76284 14.944 2.76284L13.9421 23.4639L21.1887 21.8969C21.1887 21.8969 18.6497 4.68724 18.636 4.56352C18.5811 4.43981 18.485 4.38483 18.4026 4.35734Z" fill="#5E8E3E"/>
<path d="M11.4581 8.37108L10.5798 11.024C10.5798 11.024 9.78375 10.5979 8.83675 10.5979C7.42312 10.5979 7.35449 11.4914 7.35449 11.7113C7.35449 12.9209 10.5112 13.3883 10.5112 16.2336C10.5112 18.4742 9.09752 19.9175 7.1898 19.9175C4.88407 19.9175 3.7312 18.4879 3.7312 18.4879L4.34881 16.4536C4.34881 16.4536 5.55657 17.4982 6.57219 17.4982C7.2447 17.4982 7.51919 16.9759 7.51919 16.591C7.51919 15.0103 4.93897 14.9415 4.93897 12.3298C4.93897 10.1443 6.50357 8.02744 9.67395 8.02744C10.8543 8.01369 11.4581 8.37108 11.4581 8.37108Z" fill="white"/>
<path d="M29.602 13.3608C28.8746 12.9759 28.5041 12.6323 28.5041 12.1787C28.5041 11.6014 29.0256 11.2302 29.8354 11.2302C30.7824 11.2302 31.6196 11.6151 31.6196 11.6151L32.2783 9.5945C32.2783 9.5945 31.6745 9.12714 29.8903 9.12714C27.4061 9.12714 25.6768 10.5567 25.6768 12.5636C25.6768 13.7045 26.4866 14.5704 27.5571 15.189C28.4355 15.6701 28.7374 16.0275 28.7374 16.5498C28.7374 17.0859 28.2982 17.5258 27.4885 17.5258C26.2944 17.5258 25.1553 16.9072 25.1553 16.9072L24.4553 18.9278C24.4553 18.9278 25.4984 19.6289 27.2551 19.6289C29.8079 19.6289 31.6607 18.3643 31.6607 16.0962C31.6333 14.8591 30.7137 14.0069 29.602 13.3608ZM39.7857 9.09965C38.523 9.09965 37.5349 9.70446 36.78 10.6117L36.7526 10.5979L37.8505 4.87972H35.0095L32.2372 19.4502H35.0782L36.0252 14.4742C36.3957 12.5911 37.3702 11.4227 38.276 11.4227C38.921 11.4227 39.1681 11.8625 39.1681 12.4811C39.1681 12.866 39.1406 13.3608 39.0446 13.7457L37.974 19.4502H40.815L41.9267 13.567C42.0503 12.9484 42.1326 12.2062 42.1326 11.6976C42.1189 10.0619 41.2817 9.09965 39.7857 9.09965ZM48.5557 9.09965C45.1246 9.09965 42.86 12.1924 42.86 15.6426C42.86 17.8419 44.2187 19.6289 46.7715 19.6289C50.134 19.6289 52.3986 16.6186 52.3986 13.0859C52.4123 11.0378 51.232 9.09965 48.5557 9.09965ZM47.1558 17.457C46.1814 17.457 45.7833 16.6323 45.7833 15.5876C45.7833 13.9519 46.6205 11.299 48.1714 11.299C49.1733 11.299 49.5164 12.1787 49.5164 13.0172C49.5164 14.7629 48.6518 17.457 47.1558 17.457ZM59.6864 9.09965C57.7649 9.09965 56.6807 10.8041 56.6807 10.8041H56.6532L56.8179 9.27835H54.2926C54.1691 10.3093 53.9357 11.89 53.7162 13.0584L51.7535 23.4914H54.5945L55.3906 19.2715H55.4592C55.4592 19.2715 56.0493 19.6426 57.1199 19.6426C60.4687 19.6426 62.6509 16.2062 62.6509 12.7423C62.6371 10.8179 61.7725 9.09965 59.6864 9.09965ZM56.9689 17.4845C56.2278 17.4845 55.7886 17.0584 55.7886 17.0584L56.2552 14.4055C56.5846 12.6186 57.5179 11.4502 58.506 11.4502C59.3844 11.4502 59.6452 12.2612 59.6452 13.0172C59.6589 14.8591 58.5609 17.4845 56.9689 17.4845ZM66.6996 5.01718C65.7938 5.01718 65.0664 5.7457 65.0664 6.66666C65.0664 7.50515 65.6017 8.09621 66.4114 8.09621H66.4389C67.331 8.09621 68.0858 7.4914 68.0995 6.44673C68.1133 5.60824 67.5505 5.01718 66.6996 5.01718ZM62.7195 19.4364H65.5605L67.4819 9.31958H64.6272L62.7195 19.4364ZM74.7285 9.30584H72.7522L72.8482 8.83848C73.0129 7.86254 73.5894 7.0103 74.5501 7.0103C75.0579 7.0103 75.4559 7.16151 75.4559 7.16151L76.0049 4.92096C76.0049 4.92096 75.5245 4.67353 74.454 4.67353C73.4521 4.67353 72.4365 4.96219 71.6679 5.62199C70.6935 6.44673 70.2406 7.64261 70.021 8.85223L69.9386 9.31958H68.6073L68.1819 11.4777H69.5132L68.0035 19.4502H70.8444L72.3542 11.4777H74.3168L74.7285 9.30584ZM81.5771 9.31958C81.5771 9.31958 79.7929 13.8144 79.0106 16.2749H78.9831C78.9282 15.4777 78.2832 9.31958 78.2832 9.31958H75.2912L77.0068 18.5842C77.0342 18.7904 77.0205 18.9141 76.9382 19.0515C76.6088 19.6976 76.0461 20.3161 75.3873 20.7698C74.852 21.1546 74.2481 21.4158 73.7678 21.5808L74.5638 24C75.1402 23.8763 76.348 23.3952 77.3499 22.4467C78.64 21.2371 79.8478 19.3539 81.083 16.7972L84.5553 9.30584H81.5771V9.31958Z" fill="black"/>
</svg>
