<svg width="70" height="24" viewBox="0 0 70 24" fill="none" xmlns="http://www.w3.org/2000/svg">
<path d="M4.3785 17.1405C4.67133 17.9158 5.07673 18.5787 5.5948 19.1292C6.11287 19.6798 6.72663 20.1012 7.43607 20.3933C8.1456 20.6855 8.91702 20.8315 9.75041 20.8315C10.5613 20.8315 11.3214 20.6798 12.031 20.3764C12.7405 20.073 13.3598 19.6461 13.8891 19.0955C14.4184 18.5449 14.8295 17.8877 15.1223 17.1236C15.4151 16.3596 15.5615 15.5057 15.5615 14.5618V0H19.109V23.5955H15.5953V21.4045C14.807 22.2359 13.8778 22.8764 12.808 23.3259C11.7381 23.7753 10.5838 24 9.345 24C8.08362 24 6.90679 23.7809 5.81436 23.3427C4.72201 22.9045 3.77596 22.2809 2.97643 21.4719C2.1769 20.6629 1.54617 19.6911 1.08447 18.5562C0.622696 17.4214 0.391846 16.1574 0.391846 14.764V0H3.9393V14.5618C3.9393 15.5057 4.08568 16.3652 4.3785 17.1405ZM25.2238 0V8.59549C26.0121 7.80898 26.9244 7.18545 27.9605 6.72473C28.9965 6.26401 30.1227 6.03369 31.339 6.03369C32.6003 6.03369 33.7827 6.26961 34.8864 6.74151C35.9901 7.21342 36.9473 7.85389 37.7581 8.66292C38.569 9.47195 39.211 10.4269 39.684 11.5281C40.157 12.6292 40.3934 13.7978 40.3934 15.0337C40.3934 16.2696 40.157 17.4326 39.684 18.5224C39.211 19.6123 38.569 20.5618 37.7581 21.3707C36.9473 22.1797 35.9901 22.8202 34.8864 23.2921C33.7827 23.764 32.6003 23.9999 31.339 23.9999C30.1227 23.9999 28.9909 23.7696 27.9436 23.3089C26.8962 22.8482 25.9783 22.2246 25.19 21.4381V23.5954H21.8115V0H25.2238ZM25.6123 17.3595C25.9164 18.0787 26.3388 18.7079 26.8793 19.2472C27.4199 19.7866 28.0505 20.2136 28.7713 20.5282C29.4921 20.8428 30.2691 21.0001 31.1025 21.0001C31.9134 21.0001 32.6791 20.8428 33.3999 20.5282C34.1206 20.2136 34.7456 19.7866 35.275 19.2472C35.8043 18.708 36.2266 18.0787 36.5419 17.3595C36.8573 16.6405 37.0149 15.8652 37.0149 15.0337C37.0149 14.2023 36.8573 13.4213 36.5419 12.691C36.2266 11.9607 35.8043 11.3259 35.275 10.7865C34.7457 10.2473 34.1207 9.82586 33.3999 9.52252C32.6791 9.21918 31.9133 9.0674 31.1025 9.0674C30.2917 9.0674 29.5259 9.2191 28.8051 9.52252C28.0844 9.82593 27.4538 10.2473 26.9131 10.7865C26.3726 11.3259 25.9446 11.9607 25.6293 12.691C25.314 13.4213 25.1563 14.2023 25.1563 15.0337C25.1562 15.8652 25.3083 16.6405 25.6123 17.3595ZM42.3189 11.5618C42.7693 10.4832 43.3888 9.53378 44.177 8.71356C44.9653 7.89334 45.9001 7.24728 46.9813 6.77537C48.0624 6.30347 49.2336 6.06756 50.4949 6.06756C51.7337 6.06756 52.8824 6.29228 53.9411 6.74166C54.9996 7.19112 55.9118 7.81473 56.6776 8.6125C57.4435 9.41019 58.0404 10.3541 58.4682 11.4439C58.8962 12.5338 59.1102 13.7192 59.1102 15.0002V16.1125H45.0893C45.202 16.8092 45.4272 17.4552 45.765 18.0507C46.1029 18.6462 46.5252 19.163 47.0319 19.6012C47.5387 20.0395 48.1131 20.3822 48.755 20.6293C49.397 20.8765 50.0782 21.0002 50.799 21.0002C52.8487 21.0002 54.5042 20.1574 55.7655 18.472L58.2318 20.2922C57.376 21.4383 56.3174 22.3372 55.0561 22.9888C53.7947 23.6405 52.3757 23.9664 50.7991 23.9664C49.5152 23.9664 48.3159 23.7416 47.201 23.2922C46.086 22.8428 45.1176 22.2135 44.2954 21.4045C43.4733 20.5955 42.8258 19.6461 42.3528 18.5562C41.8798 17.4664 41.6433 16.2809 41.6433 15C41.6431 13.7866 41.8685 12.6405 42.3189 11.5618ZM47.0657 10.2303C46.1085 11.0281 45.4722 12.0899 45.1569 13.4157H55.6642C55.3713 12.0899 54.7463 11.0281 53.789 10.2303C52.8318 9.43264 51.7112 9.03376 50.4274 9.03376C49.1435 9.03376 48.023 9.43264 47.0657 10.2303ZM65.4954 10.618C64.7747 11.4045 64.4143 12.4719 64.4143 13.8202V23.5956H61.0019V6.40453H64.3804V8.52814C64.8084 7.83151 65.3659 7.28092 66.0528 6.87644C66.7398 6.47189 67.5563 6.26961 68.5023 6.26961H69.6847V9.43816H68.2658C67.1396 9.43824 66.2162 9.83145 65.4954 10.618Z" fill="#010202"/>
</svg>
