<svg width="81" height="24" viewBox="0 0 81 24" fill="none" xmlns="http://www.w3.org/2000/svg">
<path fill-rule="evenodd" clip-rule="evenodd" d="M50.314 18.7687C45.686 22.18 38.978 24 33.2024 24C25.1041 24 17.8137 21.0047 12.2981 16.0231C11.8648 15.6313 12.2531 15.0974 12.7731 15.4025C18.7254 18.8658 26.0852 20.9493 33.6878 20.9493C38.815 20.9493 44.4553 19.8885 49.6415 17.6871C50.425 17.3543 51.0802 18.2002 50.314 18.7687Z" fill="#FF9900"/>
<path fill-rule="evenodd" clip-rule="evenodd" d="M52.2381 16.5674C51.6488 15.8116 48.3276 16.2103 46.8369 16.3871C46.3828 16.4426 46.3135 16.0473 46.7225 15.7631C49.3676 13.9015 53.708 14.4388 54.2141 15.0628C54.7202 15.6903 54.0824 20.041 51.5967 22.1175C51.2154 22.4365 50.8514 22.2666 51.0212 21.8437C51.5794 20.4501 52.8309 17.3266 52.2381 16.5674Z" fill="#FF9900"/>
<path fill-rule="evenodd" clip-rule="evenodd" d="M46.9407 2.62082V0.811221C46.9407 0.537336 47.1487 0.353605 47.3983 0.353605H55.5C55.76 0.353605 55.968 0.540761 55.968 0.811221V2.36079C55.9645 2.62082 55.7462 2.96057 55.3579 3.4979L51.1597 9.49182C52.7197 9.45375 54.3664 9.68599 55.7808 10.4833C56.0998 10.6636 56.1864 10.9271 56.2107 11.1871V13.118C56.2107 13.3815 55.9194 13.69 55.6144 13.5306C53.1218 12.2237 49.8112 12.0815 47.0551 13.5444C46.7743 13.697 46.4796 13.3919 46.4796 13.1285V11.2946C46.4796 10.9999 46.4831 10.4972 46.7777 10.05L51.6415 3.07501H47.4086C47.1487 3.07501 46.9407 2.89128 46.9407 2.62082ZM17.387 13.9119H14.9221C14.6864 13.8946 14.4993 13.7178 14.4819 13.4924V0.84244C14.4819 0.589342 14.6933 0.388249 14.9568 0.388249H17.2552C17.4945 0.398602 17.6851 0.582413 17.7025 0.811141V2.46488H17.7476C18.3473 0.86673 19.4739 0.121452 20.9924 0.121452C22.535 0.121452 23.4988 0.86673 24.1922 2.46488C24.7884 0.86673 26.1439 0.121452 27.5965 0.121452C28.6295 0.121452 29.7597 0.547849 30.4495 1.50465C31.2295 2.56889 31.0701 4.11504 31.0701 5.47052L31.0666 13.4543C31.0666 13.7074 30.8552 13.912 30.5917 13.912H28.1303C27.8842 13.8947 27.6866 13.6971 27.6866 13.4543V6.74971C27.6866 6.2158 27.7351 4.88453 27.6173 4.37849C27.4335 3.52912 26.8824 3.28988 26.1681 3.28988C25.5719 3.28988 24.9479 3.68856 24.6948 4.32648C24.4418 4.96441 24.4661 6.03207 24.4661 6.74971V13.4543C24.4661 13.7074 24.2545 13.9119 23.9911 13.9119H21.5297C21.2801 13.8946 21.0859 13.697 21.0859 13.4543L21.0825 6.74971C21.0825 5.33872 21.3147 3.26224 19.5641 3.26224C17.7926 3.26224 17.8619 5.28671 17.8619 6.74971V13.4543C17.8619 13.7074 17.6505 13.9119 17.387 13.9119ZM62.943 0.121372C66.6004 0.121372 68.5799 3.26216 68.5799 7.25583C68.5799 11.1143 66.3924 14.1754 62.943 14.1754C59.3515 14.1754 57.3963 11.0345 57.3963 7.1206C57.3963 3.18244 59.3758 0.121372 62.943 0.121372ZM62.9638 2.70404C61.1472 2.70404 61.0329 5.17928 61.0329 6.72192C61.0329 8.26814 61.0087 11.5684 62.943 11.5684C64.8532 11.5684 64.9433 8.90599 64.9433 7.28354C64.9433 6.2158 64.8982 4.94004 64.5758 3.9278C64.2985 3.04721 63.7473 2.70404 62.9639 2.70404H62.9638ZM73.3224 13.9119H70.8679C70.6218 13.8946 70.4242 13.697 70.4242 13.4543L70.4208 0.800788C70.4415 0.568555 70.6461 0.388249 70.8957 0.388249H73.1802C73.3952 0.398602 73.572 0.544344 73.6205 0.741854V2.67633H73.6656C74.3555 0.946451 75.3226 0.121372 77.0248 0.121372C78.1307 0.121372 79.2089 0.519974 79.9022 1.61201C80.547 2.62424 80.547 4.32648 80.547 5.55024V13.5132C80.5193 13.7351 80.3148 13.9119 80.0721 13.9119H77.6003C77.3749 13.8946 77.1878 13.7282 77.1635 13.5132V6.6422C77.1635 5.259 77.323 3.23437 75.6208 3.23437C75.0211 3.23437 74.4698 3.63656 74.196 4.24668C73.8493 5.01984 73.8042 5.7894 73.8042 6.64228V13.4543C73.8008 13.7074 73.5858 13.9119 73.3224 13.9119ZM40.4822 7.86946C40.4822 8.82969 40.5065 9.63056 40.0211 10.4833C39.6294 11.1767 39.0054 11.603 38.3155 11.603C37.3691 11.603 36.8144 10.882 36.8144 9.81771C36.8144 7.71687 38.6969 7.33555 40.4822 7.33555V7.86946ZM42.9678 13.8772C42.8049 14.0228 42.5692 14.0333 42.3855 13.9362C41.5673 13.2567 41.4182 12.9412 40.971 12.2929C39.619 13.6727 38.6588 14.0853 36.908 14.0853C34.8315 14.0853 33.2194 12.806 33.2194 10.2442C33.2194 8.24385 34.301 6.88144 35.8472 6.2158C37.1854 5.62646 39.0539 5.52245 40.4823 5.3595V5.04062C40.4823 4.45471 40.5273 3.76135 40.1806 3.25524C39.8825 2.80112 39.3069 2.61389 38.7974 2.61389C37.8579 2.61389 37.0225 3.09572 36.8179 4.09417C36.7763 4.31605 36.6133 4.53443 36.388 4.54486L33.9995 4.28834C33.7984 4.24326 33.5731 4.08031 33.632 3.77179C34.1798 0.873659 36.8006 0 39.1442 0C40.3436 0 41.9106 0.318961 42.857 1.22726C44.0564 2.34701 43.942 3.84107 43.942 5.46702V9.30809C43.942 10.4626 44.4205 10.9686 44.8711 11.5927C45.0272 11.8145 45.0618 12.0815 44.8608 12.2479C44.3581 12.6673 43.4636 13.4473 42.9714 13.8842L42.968 13.8772H42.9678ZM8.16901 7.86946C8.16901 8.82969 8.1933 9.63056 7.70789 10.4833C7.31622 11.1767 6.69565 11.603 6.0023 11.603C5.05593 11.603 4.50466 10.882 4.50466 9.81771C4.50466 7.71687 6.38713 7.33555 8.16901 7.33555V7.86946ZM10.6546 13.8772C10.4917 14.0228 10.256 14.0333 10.0723 13.9362C9.25411 13.2567 9.10845 12.9412 8.65784 12.2929C7.30578 13.6727 6.34906 14.0853 4.59481 14.0853C2.52176 14.0853 0.90625 12.806 0.90625 10.2442C0.90625 8.24385 1.99136 6.88144 3.534 6.2158C4.8722 5.62646 6.74073 5.52245 8.16901 5.3595V5.04062C8.16901 4.45471 8.21408 3.76135 7.87083 3.25524C7.56923 2.80112 6.99383 2.61389 6.48763 2.61389C5.54819 2.61389 4.70925 3.09572 4.50466 4.09417C4.46309 4.31605 4.30014 4.53443 4.07826 4.54486L1.68625 4.28834C1.48516 4.24326 1.26336 4.08031 1.31879 3.77179C1.86998 0.873659 4.48738 0 6.83088 0C8.03027 0 9.59729 0.318961 10.5437 1.22726C11.7431 2.34701 11.6288 3.84107 11.6288 5.46702V9.30809C11.6288 10.4626 12.1072 10.9686 12.5579 11.5927C12.7174 11.8145 12.752 12.0815 12.5509 12.2479C12.0482 12.6673 11.1539 13.4473 10.6616 13.8842L10.6547 13.8772" fill="black"/>
</svg>
