<svg width="74" height="24" viewBox="0 0 74 24" fill="none" xmlns="http://www.w3.org/2000/svg">
<path d="M32.0462 12.63C32.0462 16.0829 29.3351 18.6273 26.008 18.6273C22.6808 18.6273 19.9697 16.0829 19.9697 12.63C19.9697 9.15279 22.6808 6.63274 26.008 6.63274C29.3351 6.63274 32.0462 9.15279 32.0462 12.63ZM29.403 12.63C29.403 10.4723 27.8317 8.99597 26.008 8.99597C24.1843 8.99597 22.613 10.4723 22.613 12.63C22.613 14.7661 24.1843 16.2641 26.008 16.2641C27.8317 16.2641 29.403 14.7634 29.403 12.63Z" fill="#EA4335"/>
<path d="M45.0724 12.63C45.0724 16.0829 42.3612 18.6273 39.0341 18.6273C35.707 18.6273 32.9958 16.0829 32.9958 12.63C32.9958 9.1555 35.707 6.63274 39.0341 6.63274C42.3612 6.63274 45.0724 9.15279 45.0724 12.63ZM42.4291 12.63C42.4291 10.4723 40.8578 8.99597 39.0341 8.99597C37.2104 8.99597 35.6391 10.4723 35.6391 12.63C35.6391 14.7661 37.2104 16.2641 39.0341 16.2641C40.8578 16.2641 42.4291 14.7634 42.4291 12.63Z" fill="#FBBC05"/>
<path d="M57.5558 6.99507V17.7621C57.5558 22.1911 54.9342 24 51.835 24C48.9177 24 47.1618 22.0559 46.4997 20.466L48.801 19.5115C49.2108 20.4876 50.2149 21.6395 51.8323 21.6395C53.8161 21.6395 55.0455 20.42 55.0455 18.1244V17.2618H54.9532C54.3616 17.9892 53.2218 18.6246 51.7835 18.6246C48.7738 18.6246 46.0166 16.0126 46.0166 12.6517C46.0166 9.26636 48.7738 6.63274 51.7835 6.63274C53.2191 6.63274 54.3589 7.26816 54.9532 7.97389H55.0455V6.99777H57.5558V6.99507ZM55.2327 12.6517C55.2327 10.5399 53.8188 8.99597 52.0196 8.99597C50.1959 8.99597 48.668 10.5399 48.668 12.6517C48.668 14.7418 50.1959 16.2641 52.0196 16.2641C53.8188 16.2641 55.2327 14.7418 55.2327 12.6517Z" fill="#4285F4"/>
<path d="M61.6943 0.684084V18.2595H59.1162V0.684084H61.6943Z" fill="#34A853"/>
<path d="M71.7408 14.6038L73.7925 15.9666C73.1303 16.9427 71.5346 18.6246 68.7773 18.6246C65.3579 18.6246 62.8042 15.991 62.8042 12.6273C62.8042 9.06082 65.3796 6.63 68.4815 6.63C71.6051 6.63 73.133 9.10679 73.6323 10.4452L73.9064 11.1266L65.86 14.447C66.476 15.6503 67.434 16.2641 68.7773 16.2641C70.1234 16.2641 71.0569 15.6043 71.7408 14.6038ZM65.4258 12.4461L70.8045 10.2208C70.5087 9.47182 69.6186 8.94996 68.5711 8.94996C67.2277 8.94996 65.3579 10.1316 65.4258 12.4461Z" fill="#EA4335"/>
<path d="M10.2103 11.0698V8.52545H18.8159C18.9 8.96889 18.9434 9.49345 18.9434 10.0613C18.9434 11.9702 18.4196 14.3308 16.7316 16.0126C15.0898 17.7161 12.992 18.6246 10.213 18.6246C5.06221 18.6246 0.730957 14.4443 0.730957 9.31229C0.730957 4.18025 5.06221 0 10.213 0C13.0626 0 15.0925 1.11401 16.6177 2.56602L14.8157 4.36142C13.722 3.33934 12.2403 2.54439 10.2103 2.54439C6.44898 2.54439 3.50719 5.56466 3.50719 9.31229C3.50719 13.0599 6.44898 16.0802 10.2103 16.0802C12.6501 16.0802 14.0395 15.1041 14.9297 14.2172C15.6515 13.498 16.1265 12.4705 16.3137 11.0671L10.2103 11.0698Z" fill="#4285F4"/>
</svg>
