<svg width="104" height="72" viewBox="0 0 104 72" fill="none" xmlns="http://www.w3.org/2000/svg">
<path d="M43.5096 7.87253C46.8373 4.43077 51.4724 2.25495 56.5829 2.25495C63.3968 2.25495 69.2996 6.05275 72.4689 11.6703C75.2024 10.444 78.2529 9.77143 81.4618 9.77143C93.7427 9.77143 103.647 19.7802 103.647 32.1231C103.647 44.4659 93.7031 54.4747 81.4618 54.4747C79.9563 54.4747 78.4906 54.3165 77.104 54.0396C74.3309 58.9846 69.0223 62.3473 62.9214 62.3473C60.386 62.3473 57.9694 61.7538 55.8302 60.7253C53.0174 67.3319 46.4411 72 38.7952 72C30.8324 72 24.0184 66.9758 21.4038 59.8945C20.2549 60.1319 19.0664 60.2506 17.878 60.2506C8.37009 60.2506 0.68457 52.4967 0.68457 42.8835C0.68457 36.4747 4.13117 30.8571 9.28126 27.8505C8.21163 25.4374 7.61738 22.7473 7.61738 19.8989C7.57777 8.94066 16.5706 0 27.5839 0C34.0809 0 39.8649 3.08571 43.5096 7.87253Z" fill="#00A1E0"/>
<path d="M15.5803 37.3451L16.0161 36.1978C16.0953 36 16.2141 36.0791 16.2934 36.1187C16.4122 36.1978 16.4915 36.2374 16.6499 36.3561C17.878 37.1473 19.0269 37.1473 19.3834 37.1473C20.2946 37.1473 20.8888 36.6725 20.8888 36V35.9605C20.8888 35.2484 20.0173 34.9714 18.9873 34.655L18.7496 34.5758C17.363 34.1802 15.8576 33.5868 15.8576 31.8462V31.8066C15.8576 30.1451 17.2045 28.9583 19.1457 28.9583H19.3438C20.4927 28.9583 21.5623 29.2747 22.3546 29.789C22.4339 29.8286 22.5131 29.9077 22.4735 30.0264C22.4339 30.1451 22.0773 31.055 22.0377 31.1736C21.9585 31.3714 21.7604 31.2528 21.7604 31.2528C21.0473 30.8572 19.9777 30.5802 19.0665 30.5802C18.2346 30.5802 17.7196 31.0154 17.7196 31.6088V31.6484C17.7196 32.3209 18.6307 32.6374 19.6607 32.9539L19.8588 32.9934C21.2454 33.4286 22.7112 34.022 22.7112 35.7231V35.7627C22.7112 37.5824 21.4039 38.6901 19.3042 38.6901C18.2742 38.6901 17.2838 38.5319 16.2141 37.978C16.0161 37.8594 15.818 37.7802 15.6199 37.622C15.5803 37.5429 15.5011 37.5033 15.5803 37.3451ZM46.4808 37.3451L46.9166 36.1978C46.9958 36 47.1543 36.0791 47.1939 36.1187C47.3128 36.1978 47.392 36.2374 47.5505 36.3561C48.7786 37.1473 49.9274 37.1473 50.284 37.1473C51.1951 37.1473 51.7894 36.6725 51.7894 36V35.9605C51.7894 35.2484 50.9178 34.9714 49.8878 34.655L49.6501 34.5758C48.2636 34.1802 46.7581 33.5868 46.7581 31.8462V31.8066C46.7581 30.1451 48.1051 28.9583 50.0463 28.9583H50.2444C51.3932 28.9583 52.4629 29.2747 53.2552 29.789C53.3344 29.8286 53.4136 29.9077 53.374 30.0264C53.3344 30.1451 52.9779 31.055 52.9383 31.1736C52.859 31.3714 52.6609 31.2528 52.6609 31.2528C51.9479 30.8572 50.8782 30.5802 49.967 30.5802C49.1351 30.5802 48.6201 31.0154 48.6201 31.6088V31.6484C48.6201 32.3209 49.5313 32.6374 50.5613 32.9539L50.7594 32.9934C52.1459 33.4286 53.6117 34.022 53.6117 35.7231V35.7627C53.6117 37.5824 52.3044 38.6901 50.2047 38.6901C49.1747 38.6901 48.1843 38.5319 47.1147 37.978C46.9166 37.8594 46.7185 37.7802 46.5204 37.622C46.5204 37.5429 46.4412 37.5033 46.4808 37.3451ZM69.3789 31.9253C69.5374 32.5187 69.6562 33.1517 69.6562 33.8242C69.6562 34.4967 69.577 35.1297 69.3789 35.7231C69.2205 36.3165 68.9432 36.8308 68.5866 37.266C68.2301 37.7011 67.7547 38.0572 67.2397 38.2945C66.685 38.5319 66.0512 38.6506 65.3381 38.6506C64.625 38.6506 63.9911 38.5319 63.4365 38.2945C62.8819 38.0572 62.4461 37.7011 62.0896 37.266C61.733 36.8308 61.4557 36.3165 61.2972 35.7231C61.1388 35.1297 61.0199 34.4967 61.0199 33.8242C61.0199 33.1517 61.0992 32.5187 61.2972 31.9253C61.4557 31.3319 61.733 30.8176 62.0896 30.3824C62.4461 29.9473 62.9215 29.5912 63.4365 29.3539C63.9911 29.1165 64.625 28.9583 65.3381 28.9583C66.0512 28.9583 66.685 29.0769 67.2397 29.3539C67.7943 29.5912 68.2301 29.9473 68.5866 30.3824C68.9432 30.8176 69.2205 31.3319 69.3789 31.9253ZM67.5962 33.7846C67.5962 32.7561 67.3981 31.9649 67.0416 31.411C66.685 30.8572 66.0908 30.5802 65.3381 30.5802C64.5458 30.5802 63.9911 30.8572 63.6346 31.411C63.278 31.9649 63.08 32.7561 63.08 33.7846C63.08 34.8132 63.278 35.6044 63.6346 36.1978C63.9911 36.7517 64.5458 37.0286 65.3381 37.0286C66.1304 37.0286 66.685 36.7517 67.0416 36.1978C67.4377 35.644 67.5962 34.8132 67.5962 33.7846ZM83.8784 36.7517L84.3142 37.9385C84.3538 38.0967 84.235 38.1363 84.235 38.1363C83.5615 38.4132 82.6503 38.5714 81.7392 38.5714C80.1941 38.5714 79.0453 38.1363 78.2529 37.266C77.4606 36.3956 77.0645 35.2088 77.0645 33.7451C77.0645 33.0725 77.1437 32.4396 77.3418 31.8462C77.5398 31.2528 77.8172 30.7385 78.2133 30.3033C78.6095 29.8682 79.0849 29.5121 79.6395 29.2747C80.1941 29.0374 80.8676 28.8791 81.6203 28.8791C82.1353 28.8791 82.5711 28.9187 82.9276 28.9583C83.3238 29.0374 83.8784 29.1561 84.1161 29.2747C84.1557 29.2747 84.2746 29.3539 84.235 29.4725C84.0765 29.9473 83.9576 30.2638 83.7992 30.6594C83.72 30.8572 83.6011 30.778 83.6011 30.778C83.0069 30.5802 82.4522 30.5011 81.7392 30.5011C80.8676 30.5011 80.1941 30.778 79.798 31.3714C79.3622 31.9253 79.1245 32.6769 79.1245 33.7055C79.1245 34.8132 79.4018 35.6044 79.8772 36.1187C80.3526 36.633 81.0261 36.8703 81.8976 36.8703C82.2542 36.8703 82.5711 36.8308 82.8484 36.7912C83.1257 36.7517 83.403 36.6725 83.6803 36.5539C83.6407 36.633 83.7992 36.5934 83.8784 36.7517ZM92.8713 31.5693C93.2674 32.9143 93.0694 34.0616 93.0297 34.1407C93.0297 34.2989 92.8713 34.2989 92.8713 34.2989H86.8892C86.9289 35.2088 87.1269 35.8418 87.6023 36.2769C88.0381 36.7121 88.7116 36.989 89.6624 36.989C91.0885 36.989 91.6828 36.7121 92.1186 36.5539C92.1186 36.5539 92.277 36.5143 92.3563 36.6725L92.7524 37.7802C92.8316 37.978 92.7524 38.0176 92.7128 38.0572C92.3563 38.255 91.4451 38.6506 89.702 38.6506C88.87 38.6506 88.1173 38.5319 87.5231 38.2945C86.9289 38.0572 86.4138 37.7407 86.0177 37.3055C85.6215 36.8703 85.3442 36.3561 85.1461 35.8022C84.9481 35.2088 84.8688 34.5758 84.8688 33.9033C84.8688 33.2308 84.9481 32.5978 85.1461 32.0044C85.3046 31.411 85.5819 30.8967 85.9385 30.4616C86.295 30.0264 86.7704 29.6703 87.325 29.433C87.8796 29.1561 88.5531 29.0374 89.3058 29.0374C89.9397 29.0374 90.5339 29.1561 91.0093 29.3934C91.3659 29.5517 91.762 29.8286 92.1582 30.2638C92.3563 30.422 92.7128 31.0154 92.8713 31.5693ZM86.9289 32.8352H91.1678C91.1282 32.2813 91.0093 31.8066 90.7716 31.411C90.4151 30.8572 89.9001 30.5407 89.1077 30.5407C88.3154 30.5407 87.7608 30.8572 87.4043 31.411C87.1665 31.7671 87.0477 32.2418 86.9289 32.8352ZM45.0547 31.5693C45.4508 32.9143 45.2527 34.0616 45.2527 34.1407C45.2527 34.2989 45.0943 34.2989 45.0943 34.2989H39.1122C39.1519 35.2088 39.3499 35.8418 39.8253 36.2769C40.2611 36.7121 40.9346 36.989 41.8854 36.989C43.3115 36.989 43.9058 36.7121 44.3416 36.5539C44.3416 36.5539 44.5 36.5143 44.5793 36.6725L44.9754 37.7802C45.0547 37.978 44.9754 38.0176 44.9358 38.0572C44.5793 38.255 43.6681 38.6506 41.925 38.6506C41.093 38.6506 40.3403 38.5319 39.7461 38.2945C39.1519 38.0572 38.6369 37.7407 38.2407 37.3055C37.8445 36.8703 37.5672 36.3561 37.3691 35.8022C37.1711 35.2088 37.0918 34.5758 37.0918 33.9033C37.0918 33.2308 37.1711 32.5978 37.3691 32.0044C37.5276 31.411 37.8049 30.8967 38.1615 30.4616C38.518 30.0264 38.9934 29.6703 39.548 29.433C40.1026 29.1561 40.7761 29.0374 41.5288 29.0374C42.1627 29.0374 42.7569 29.1561 43.2323 29.3934C43.5889 29.5517 43.985 29.8286 44.3812 30.2638C44.5396 30.422 44.9358 31.0154 45.0547 31.5693ZM39.1122 32.8352H43.3908C43.3512 32.2813 43.2323 31.8066 42.9946 31.411C42.6381 30.8572 42.1231 30.5407 41.3307 30.5407C40.5384 30.5407 39.9838 30.8572 39.6273 31.411C39.3499 31.7671 39.2311 32.2418 39.1122 32.8352ZM28.614 32.5187C28.614 32.5187 29.0894 32.5583 29.6044 32.6374V32.4C29.6044 31.6088 29.4459 31.2132 29.129 30.9758C28.8121 30.7385 28.2971 30.5802 27.6632 30.5802C27.6632 30.5802 26.1974 30.5802 25.0485 31.1736C25.0089 31.2132 24.9693 31.2132 24.9693 31.2132C24.9693 31.2132 24.8108 31.2528 24.7712 31.1341L24.3354 29.9868C24.2562 29.8286 24.3751 29.7495 24.3751 29.7495C24.9297 29.3143 26.1974 29.0769 26.1974 29.0769C26.6332 28.9978 27.3463 28.9187 27.782 28.9187C28.9705 28.9187 29.8817 29.1956 30.5156 29.7495C31.1494 30.3033 31.4663 31.1736 31.4663 32.4V37.8594C31.4663 37.8594 31.4663 38.0176 31.3475 38.0572C31.3475 38.0572 31.1098 38.1363 30.9117 38.1758C30.7136 38.2154 30.0005 38.3736 29.4063 38.4528C28.8121 38.5714 28.2178 38.611 27.584 38.611C26.9897 38.611 26.4747 38.5714 25.9993 38.4528C25.5239 38.3341 25.1278 38.1758 24.7712 37.9385C24.4543 37.7011 24.177 37.3846 23.9789 36.989C23.7808 36.633 23.7016 36.1583 23.7016 35.644C23.7016 35.1297 23.8204 34.655 24.0185 34.2594C24.2166 33.8638 24.5335 33.5473 24.8901 33.2703C25.2466 32.9934 25.6824 32.8352 26.1182 32.6769C26.5936 32.5583 27.069 32.4791 27.584 32.4791C28.0594 32.5187 28.3763 32.5187 28.614 32.5187ZM26.237 36.7121C26.237 36.7121 26.7916 37.1473 27.9801 37.0681C28.8517 37.0286 29.6044 36.8703 29.6044 36.8703V34.1407C29.6044 34.1407 28.8517 34.022 27.9801 34.022C26.752 34.022 26.237 34.4572 26.237 34.4572C25.8805 34.6945 25.722 35.0901 25.722 35.6044C25.722 35.9209 25.8012 36.1978 25.9201 36.3956C25.9597 36.4747 25.9993 36.5539 26.237 36.7121ZM76.7475 29.4725C76.7079 29.6308 76.391 30.4616 76.3117 30.7385C76.2721 30.8572 76.1929 30.8967 76.0741 30.8967C76.0741 30.8967 75.7175 30.8176 75.4006 30.8176C75.2025 30.8176 74.8856 30.8572 74.6083 30.9363C74.3309 31.0154 74.0932 31.1736 73.8555 31.3714C73.6179 31.5693 73.4594 31.8857 73.3405 32.2418C73.2217 32.5978 73.1425 33.1912 73.1425 33.8242V38.255C73.1425 38.3736 73.0632 38.4528 72.9444 38.4528H71.3597C71.2409 38.4528 71.1617 38.3736 71.1617 38.255V29.3539C71.1617 29.2352 71.2409 29.1561 71.3201 29.1561H72.8651C72.984 29.1561 73.0236 29.2352 73.0236 29.3539V30.066C73.2613 29.7495 73.6575 29.4725 74.014 29.3143C74.3706 29.1561 74.8063 29.0374 75.559 29.0769C75.9552 29.1165 76.4702 29.1956 76.5494 29.2352C76.7079 29.2747 76.7871 29.3143 76.7475 29.4725ZM62.0499 25.3583C62.0896 25.3583 62.2084 25.4374 62.1688 25.5561L61.6934 26.822C61.6538 26.9011 61.6142 26.9802 61.4161 26.9011C61.3765 26.9011 61.2972 26.8616 61.0992 26.822C60.9803 26.7824 60.7822 26.7824 60.6238 26.7824C60.3861 26.7824 60.188 26.822 59.9899 26.8616C59.7918 26.9011 59.6334 27.0198 59.4749 27.178C59.2896 27.3586 59.1416 27.5736 59.0391 27.811C58.8014 28.444 58.7222 29.1165 58.7222 29.1561H60.6238C60.7822 29.1561 60.8219 29.2352 60.8219 29.3539L60.5842 30.5802C60.5445 30.778 60.3861 30.7385 60.3861 30.7385H58.4053L57.1376 38.3736C56.9791 39.1649 56.8206 39.8374 56.6226 40.3912C56.4245 40.9451 56.1868 41.3407 55.8302 41.7363C55.5133 42.0923 55.1568 42.3692 54.721 42.4879C54.3248 42.6462 53.8098 42.7253 53.2552 42.7253C52.9779 42.7253 52.7006 42.7253 52.3836 42.6462C52.1459 42.6066 52.0271 42.5671 51.829 42.4879C51.7498 42.4484 51.7102 42.3692 51.7498 42.2506C51.7894 42.1319 52.1459 41.1824 52.1856 41.0242C52.2648 40.866 52.3836 40.9451 52.3836 40.9451C52.5025 40.9846 52.5817 41.0242 52.7006 41.0638C52.859 41.1033 53.0175 41.1033 53.176 41.1033C53.4533 41.1033 53.691 41.0638 53.889 40.9846C54.1267 40.9055 54.2852 40.7473 54.4437 40.5495C54.6021 40.3517 54.721 40.0747 54.8794 39.7187C54.9983 39.3627 55.1171 38.8484 55.236 38.255L56.5829 30.778H55.2756C55.1171 30.778 55.0775 30.6989 55.0775 30.5802L55.3152 29.3539C55.3548 29.1561 55.5133 29.1956 55.5133 29.1956H56.8602L56.9395 28.8C57.1376 27.6132 57.5337 26.7033 58.128 26.1099C58.7222 25.5165 59.5938 25.2 60.6634 25.2C60.9803 25.2 61.2576 25.2396 61.4953 25.2791C61.6538 25.2396 61.8519 25.2791 62.0499 25.3583ZM35.3487 38.2154C35.3487 38.3341 35.2695 38.4132 35.1903 38.4132H33.6056C33.4868 38.4132 33.4471 38.3341 33.4471 38.2154V25.5165C33.4471 25.4374 33.5264 25.3187 33.6056 25.3187H35.1903C35.3091 25.3187 35.3487 25.3978 35.3487 25.5165V38.2154Z" fill="white"/>
</svg>
