<svg width="64" height="64" viewBox="0 0 64 64" fill="none" xmlns="http://www.w3.org/2000/svg">
<circle cx="32" cy="32" r="32" fill="#F8F8F9"/>
<rect x="21" y="23" width="23" height="17" fill="#ADD4EA"/>
<path d="M41 40H24V37H21V40.5562C21 41.9937 22.0063 43 23.3 43H41.5562C42.85 43 44 41.9937 44 40.5562V37H41V40ZM41.5562 20H23.3C22.0063 20 21 21.0063 21 22.3V27H24V23H41.0264V27H44V22.3C44 21.0063 42.9937 20 41.5562 20Z" fill="#505876"/>
<path d="M39 25H26V28H39V25Z" fill="#505876"/>
<path d="M39 30H26V33H39V30Z" fill="#505876"/>
<path d="M33 35H26V38H33V35Z" fill="#505876"/>
<path d="M16.5 29.5L14 32L16.5 34.5L19 37L19 34L24 34L24 30L19 30L19 27L16.5 29.5Z" fill="#E45C96"/>
<path d="M41 34L46 34L46 37L48.5 34.5L51 32L46 27L46 30L41 30L41 34Z" fill="#E45C96"/>
</svg>
