<svg width="64" height="64" viewBox="0 0 64 64" fill="none" xmlns="http://www.w3.org/2000/svg">
<circle cx="32" cy="32" r="32" fill="#F8F8F9"/>
<path d="M37 21H17V41H37V21Z" fill="#ADD4EA"/>
<path d="M33 31H21V34H33V31Z" fill="#505876"/>
<path d="M34 25H20V29H34V25Z" fill="#505876" fill-opacity="0.5"/>
<path d="M36.3333 19H17.6667C16.2 19 15 20.2 15 21.6667V40.3333C15 41.8 16.2 43 17.6667 43H20V40H18V22H36V40H34V43H36.3333C37.8 43 39 41.8 39 40.3333V21.6667C39 20.2 37.8 19 36.3333 19Z" fill="#505876"/>
<path d="M29.268 36L23.8013 41.4667L26.468 44.1333L31.9346 38.6667V36H29.268ZM22.068 43.0667C21.5346 43.6 21.5346 44.5333 22.068 45.2L22.7346 45.8667C23.268 46.4 24.2013 46.4 24.868 45.8667L25.668 45.0667L23.0013 42.4L22.068 43.0667Z" fill="#E45C96"/>
<path d="M42.6128 32.1059L44.0195 32.7088L42.6128 33.3117L42.0099 34.7184L41.407 33.3117L40.0003 32.7088L41.407 32.1059L42.0099 30.6992L42.6128 32.1059Z" fill="#E45C96"/>
<path d="M44.3499 28.6987L43.3451 26.3541L41.0005 25.3493L43.3451 24.3445L44.3499 22L45.3547 24.3445L47.6992 25.3493L45.3547 26.3541L44.3499 28.6987Z" fill="#E45C96"/>
</svg>
